<svg width="25" height="25" viewBox="0 0 25 25" fill="none" xmlns="http://www.w3.org/2000/svg">
<path d="M21.7083 4.80209C21.1763 4.2698 20.5446 3.84755 19.8493 3.55946C19.154 3.27138 18.4088 3.1231 17.6562 3.1231C16.9036 3.1231 16.1584 3.27138 15.4632 3.55946C14.7679 3.84755 14.1362 4.2698 13.6041 4.80209L12.5 5.90625L11.3958 4.80209C10.3211 3.72741 8.86356 3.12366 7.34373 3.12366C5.82391 3.12366 4.36633 3.72741 3.29165 4.80209C2.21697 5.87676 1.61322 7.33434 1.61322 8.85417C1.61322 10.374 2.21697 11.8316 3.29165 12.9063L12.5 22.1146L21.7083 12.9063C22.2406 12.3742 22.6628 11.7425 22.9509 11.0472C23.239 10.352 23.3873 9.60676 23.3873 8.85417C23.3873 8.10158 23.239 7.35636 22.9509 6.66109C22.6628 5.96582 22.2406 5.33412 21.7083 4.80209Z" stroke="#1E1E1E" stroke-width="2" stroke-linecap="round" stroke-linejoin="round"/>
</svg>
