<svg width="28" height="24" viewBox="0 0 28 24" fill="none" xmlns="http://www.w3.org/2000/svg">
<path d="M25.0501 2.76249C24.4117 2.12375 23.6537 1.61705 22.8193 1.27135C21.985 0.925645 21.0908 0.747711 20.1876 0.747711C19.2845 0.747711 18.3903 0.925645 17.556 1.27135C16.7216 1.61705 15.9636 2.12375 15.3251 2.76249L14.0001 4.08749L12.6751 2.76249C11.3855 1.47288 9.63644 0.74838 7.81265 0.74838C5.98886 0.74838 4.23976 1.47288 2.95015 2.76249C1.66053 4.05211 0.936035 5.8012 0.936035 7.62499C0.936035 9.44878 1.66053 11.1979 2.95015 12.4875L14.0001 23.5375L25.0501 12.4875C25.6889 11.849 26.1956 11.091 26.5413 10.2567C26.887 9.42236 27.0649 8.5281 27.0649 7.62499C27.0649 6.72188 26.887 5.82762 26.5413 4.9933C26.1956 4.15897 25.6889 3.40094 25.0501 2.76249Z" fill="#C00000"/>
</svg>
