<svg width="25" height="25" viewBox="0 0 25 25" fill="none" xmlns="http://www.w3.org/2000/svg">
<path d="M1.04166 1.04169H5.20832L7.99999 14.9896C8.09525 15.4692 8.35614 15.9 8.73702 16.2066C9.11789 16.5132 9.59447 16.6761 10.0833 16.6667H20.2083C20.6972 16.6761 21.1738 16.5132 21.5546 16.2066C21.9355 15.9 22.1964 15.4692 22.2917 14.9896L23.9583 6.25002H6.24999M10.4167 21.875C10.4167 22.4503 9.95029 22.9167 9.37499 22.9167C8.79969 22.9167 8.33332 22.4503 8.33332 21.875C8.33332 21.2997 8.79969 20.8334 9.37499 20.8334C9.95029 20.8334 10.4167 21.2997 10.4167 21.875ZM21.875 21.875C21.875 22.4503 21.4086 22.9167 20.8333 22.9167C20.258 22.9167 19.7917 22.4503 19.7917 21.875C19.7917 21.2997 20.258 20.8334 20.8333 20.8334C21.4086 20.8334 21.875 21.2997 21.875 21.875Z" stroke="white" stroke-width="2" stroke-linecap="round" stroke-linejoin="round"/>
</svg>
